<mxfile host="www.draw.io" modified="2020-02-19T15:49:16.907Z" agent="Mozilla/5.0 (Macintosh; Intel Mac OS X 10_13_6) AppleWebKit/605.1.15 (KHTML, like Gecko) Version/13.0.5 Safari/605.1.15" etag="dPm0L3864RfupJx1JAs_" version="12.7.2" type="github">
  <diagram id="x3PdwDb2VcQb05uhEk-L" name="Page-1">
    <mxGraphModel dx="615" dy="474" grid="1" gridSize="10" guides="1" tooltips="1" connect="1" arrows="1" fold="1" page="1" pageScale="1" pageWidth="827" pageHeight="1169" math="0" shadow="0">
      <root>
        <mxCell id="0" />
        <mxCell id="1" parent="0" />
        <mxCell id="CMZeyMyYZoMzUO1abHUg-1" value="" style="rounded=1;whiteSpace=wrap;html=1;shadow=1;fillColor=#f5f5f5;strokeColor=#666666;fontColor=#333333;" parent="1" vertex="1">
          <mxGeometry x="70" y="50" width="520" height="190" as="geometry" />
        </mxCell>
        <mxCell id="CMZeyMyYZoMzUO1abHUg-2" value="DATA ACQUISITION" style="text;html=1;strokeColor=#6c8ebf;fillColor=#dae8fc;align=center;verticalAlign=middle;whiteSpace=wrap;rounded=0;" parent="1" vertex="1">
          <mxGeometry x="270" y="50" width="130" height="20" as="geometry" />
        </mxCell>
        <mxCell id="CMZeyMyYZoMzUO1abHUg-3" value="" style="rounded=1;whiteSpace=wrap;html=1;shadow=1;fillColor=#dae8fc;strokeColor=#6c8ebf;" parent="1" vertex="1">
          <mxGeometry x="80" y="75" width="380" height="155" as="geometry" />
        </mxCell>
        <mxCell id="CMZeyMyYZoMzUO1abHUg-4" value="AUTOMATED DATA ACQUISITION" style="text;html=1;strokeColor=none;fillColor=none;align=center;verticalAlign=middle;whiteSpace=wrap;rounded=0;" parent="1" vertex="1">
          <mxGeometry x="120" y="80" width="210" height="20" as="geometry" />
        </mxCell>
        <mxCell id="CMZeyMyYZoMzUO1abHUg-6" value="" style="rounded=0;whiteSpace=wrap;html=1;shadow=1;" parent="1" vertex="1">
          <mxGeometry x="90" y="110" width="270" height="110" as="geometry" />
        </mxCell>
        <mxCell id="CMZeyMyYZoMzUO1abHUg-7" value="&lt;font style=&quot;font-size: 9px&quot;&gt;PROCESS CHAIN&lt;/font&gt;" style="text;html=1;strokeColor=#6c8ebf;fillColor=#dae8fc;align=center;verticalAlign=middle;whiteSpace=wrap;rounded=0;shadow=1;" parent="1" vertex="1">
          <mxGeometry x="90" y="110" width="90" height="20" as="geometry" />
        </mxCell>
        <mxCell id="CMZeyMyYZoMzUO1abHUg-8" value="" style="rounded=1;whiteSpace=wrap;html=1;shadow=1;fillColor=#dae8fc;strokeColor=#6c8ebf;" parent="1" vertex="1">
          <mxGeometry x="460" y="75" width="120" height="155" as="geometry" />
        </mxCell>
        <mxCell id="CMZeyMyYZoMzUO1abHUg-9" value="MANUAL &lt;br&gt;DATA ACQUISITION" style="text;html=1;strokeColor=none;fillColor=none;align=center;verticalAlign=middle;whiteSpace=wrap;rounded=0;shadow=1;" parent="1" vertex="1">
          <mxGeometry x="425" y="80" width="190" height="20" as="geometry" />
        </mxCell>
        <mxCell id="CMZeyMyYZoMzUO1abHUg-10" value="" style="rounded=0;whiteSpace=wrap;html=1;shadow=1;" parent="1" vertex="1">
          <mxGeometry x="470" y="110" width="100" height="110" as="geometry" />
        </mxCell>
        <mxCell id="CMZeyMyYZoMzUO1abHUg-72" value="" style="edgeStyle=orthogonalEdgeStyle;rounded=0;orthogonalLoop=1;jettySize=auto;html=1;" parent="1" source="CMZeyMyYZoMzUO1abHUg-13" target="CMZeyMyYZoMzUO1abHUg-56" edge="1">
          <mxGeometry relative="1" as="geometry" />
        </mxCell>
        <mxCell id="CMZeyMyYZoMzUO1abHUg-13" value="&lt;font style=&quot;font-size: 9px&quot;&gt;MACHINE&lt;/font&gt;" style="text;html=1;strokeColor=#6c8ebf;fillColor=#dae8fc;align=center;verticalAlign=middle;whiteSpace=wrap;rounded=0;shadow=1;" parent="1" vertex="1">
          <mxGeometry x="310" y="162.5" width="50" height="20" as="geometry" />
        </mxCell>
        <mxCell id="CMZeyMyYZoMzUO1abHUg-33" value="" style="edgeStyle=orthogonalEdgeStyle;rounded=0;orthogonalLoop=1;jettySize=auto;html=1;" parent="1" source="CMZeyMyYZoMzUO1abHUg-16" target="CMZeyMyYZoMzUO1abHUg-32" edge="1">
          <mxGeometry relative="1" as="geometry" />
        </mxCell>
        <mxCell id="CMZeyMyYZoMzUO1abHUg-16" value="&lt;font style=&quot;font-size: 9px&quot;&gt;Mixing&lt;/font&gt;" style="rounded=0;whiteSpace=wrap;html=1;shadow=1;fillColor=#ffe6cc;strokeColor=#d79b00;" parent="1" vertex="1">
          <mxGeometry x="100" y="137.5" width="30" height="25" as="geometry" />
        </mxCell>
        <mxCell id="CMZeyMyYZoMzUO1abHUg-32" value="&lt;span style=&quot;font-size: 9px&quot;&gt;Planetary mixer&lt;/span&gt;" style="rounded=0;whiteSpace=wrap;html=1;shadow=1;fillColor=#fff2cc;strokeColor=#d6b656;" parent="1" vertex="1">
          <mxGeometry x="95" y="180" width="40" height="35" as="geometry" />
        </mxCell>
        <mxCell id="CMZeyMyYZoMzUO1abHUg-35" value="" style="edgeStyle=orthogonalEdgeStyle;rounded=0;orthogonalLoop=1;jettySize=auto;html=1;" parent="1" source="CMZeyMyYZoMzUO1abHUg-19" target="CMZeyMyYZoMzUO1abHUg-34" edge="1">
          <mxGeometry relative="1" as="geometry">
            <Array as="points">
              <mxPoint x="150" y="180" />
            </Array>
          </mxGeometry>
        </mxCell>
        <mxCell id="CMZeyMyYZoMzUO1abHUg-19" value="&lt;font style=&quot;font-size: 9px&quot;&gt;Coating&lt;br&gt;&lt;/font&gt;" style="rounded=0;whiteSpace=wrap;html=1;shadow=1;fillColor=#ffe6cc;strokeColor=#d79b00;" parent="1" vertex="1">
          <mxGeometry x="130" y="137.5" width="40" height="25" as="geometry" />
        </mxCell>
        <mxCell id="CMZeyMyYZoMzUO1abHUg-34" value="&lt;font style=&quot;font-size: 9px&quot;&gt;Extruder/ Coater&lt;br&gt;&lt;/font&gt;" style="rounded=0;whiteSpace=wrap;html=1;shadow=1;fillColor=#fff2cc;strokeColor=#d6b656;" parent="1" vertex="1">
          <mxGeometry x="140" y="180" width="40" height="35" as="geometry" />
        </mxCell>
        <mxCell id="CMZeyMyYZoMzUO1abHUg-37" value="" style="edgeStyle=orthogonalEdgeStyle;rounded=0;orthogonalLoop=1;jettySize=auto;html=1;" parent="1" source="CMZeyMyYZoMzUO1abHUg-22" target="CMZeyMyYZoMzUO1abHUg-36" edge="1">
          <mxGeometry relative="1" as="geometry" />
        </mxCell>
        <mxCell id="CMZeyMyYZoMzUO1abHUg-36" value="&lt;font style=&quot;font-size: 9px&quot;&gt;Calender&lt;br&gt;&lt;/font&gt;" style="rounded=0;whiteSpace=wrap;html=1;shadow=1;fillColor=#fff2cc;strokeColor=#d6b656;" parent="1" vertex="1">
          <mxGeometry x="200" y="180" width="50" height="30" as="geometry" />
        </mxCell>
        <mxCell id="CMZeyMyYZoMzUO1abHUg-39" value="" style="edgeStyle=orthogonalEdgeStyle;rounded=0;orthogonalLoop=1;jettySize=auto;html=1;" parent="1" source="CMZeyMyYZoMzUO1abHUg-23" target="CMZeyMyYZoMzUO1abHUg-38" edge="1">
          <mxGeometry relative="1" as="geometry" />
        </mxCell>
        <mxCell id="CMZeyMyYZoMzUO1abHUg-38" value="&lt;font style=&quot;font-size: 9px&quot;&gt;Z-Folder&lt;br&gt;&lt;/font&gt;" style="rounded=0;whiteSpace=wrap;html=1;shadow=1;fillColor=#fff2cc;strokeColor=#d6b656;" parent="1" vertex="1">
          <mxGeometry x="265" y="180" width="40" height="30" as="geometry" />
        </mxCell>
        <mxCell id="CMZeyMyYZoMzUO1abHUg-25" value="&lt;font style=&quot;font-size: 9px&quot;&gt;Drying&lt;br&gt;&lt;/font&gt;" style="rounded=0;whiteSpace=wrap;html=1;shadow=1;fillColor=#ffe6cc;strokeColor=#d79b00;" parent="1" vertex="1">
          <mxGeometry x="170" y="137.5" width="30" height="25" as="geometry" />
        </mxCell>
        <mxCell id="CMZeyMyYZoMzUO1abHUg-28" value="......." style="text;html=1;strokeColor=none;fillColor=none;align=center;verticalAlign=middle;whiteSpace=wrap;rounded=0;shadow=1;" parent="1" vertex="1">
          <mxGeometry x="250" y="140" width="30" height="20" as="geometry" />
        </mxCell>
        <mxCell id="CMZeyMyYZoMzUO1abHUg-44" value="" style="rounded=0;whiteSpace=wrap;html=1;shadow=1;" parent="1" vertex="1">
          <mxGeometry x="470" y="110" width="75" height="50" as="geometry" />
        </mxCell>
        <mxCell id="CMZeyMyYZoMzUO1abHUg-45" value="&lt;font style=&quot;font-size: 9px&quot;&gt;OPERATIONAL DATA&lt;/font&gt;" style="text;html=1;strokeColor=#b85450;fillColor=#f8cecc;align=center;verticalAlign=middle;whiteSpace=wrap;rounded=0;shadow=1;" parent="1" vertex="1">
          <mxGeometry x="470" y="110" width="75" height="30" as="geometry" />
        </mxCell>
        <mxCell id="CMZeyMyYZoMzUO1abHUg-46" value="" style="shape=mxgraph.bpmn.script_task;html=1;outlineConnect=0;shadow=1;" parent="1" vertex="1">
          <mxGeometry x="525" y="143" width="20" height="14" as="geometry" />
        </mxCell>
        <mxCell id="CMZeyMyYZoMzUO1abHUg-55" value="" style="endArrow=none;html=1;" parent="1" edge="1">
          <mxGeometry width="50" height="50" relative="1" as="geometry">
            <mxPoint x="510" y="187" as="sourcePoint" />
            <mxPoint x="510" y="160" as="targetPoint" />
          </mxGeometry>
        </mxCell>
        <mxCell id="CMZeyMyYZoMzUO1abHUg-52" value="&lt;font size=&quot;1&quot;&gt;Microsoft&lt;/font&gt;" style="text;html=1;strokeColor=#82b366;fillColor=#d5e8d4;align=center;verticalAlign=middle;whiteSpace=wrap;rounded=0;shadow=1;" parent="1" vertex="1">
          <mxGeometry x="482.5" y="185" width="75" height="30" as="geometry" />
        </mxCell>
        <mxCell id="CMZeyMyYZoMzUO1abHUg-56" value="" style="rounded=0;whiteSpace=wrap;html=1;shadow=1;" parent="1" vertex="1">
          <mxGeometry x="374" y="90" width="73" height="110" as="geometry" />
        </mxCell>
        <mxCell id="CMZeyMyYZoMzUO1abHUg-57" value="&lt;font style=&quot;font-size: 9px&quot;&gt;Machine&lt;br&gt;Parameters&lt;/font&gt;" style="text;html=1;strokeColor=#b85450;fillColor=#f8cecc;align=left;verticalAlign=middle;whiteSpace=wrap;rounded=0;shadow=1;" parent="1" vertex="1">
          <mxGeometry x="384" y="90" width="56" height="25" as="geometry" />
        </mxCell>
        <mxCell id="CMZeyMyYZoMzUO1abHUg-59" value="&lt;font style=&quot;font-size: 9px&quot;&gt;Power Data&lt;/font&gt;" style="text;html=1;strokeColor=#b85450;fillColor=#f8cecc;align=left;verticalAlign=middle;whiteSpace=wrap;rounded=0;shadow=1;" parent="1" vertex="1">
          <mxGeometry x="384" y="117.5" width="56" height="20" as="geometry" />
        </mxCell>
        <mxCell id="CMZeyMyYZoMzUO1abHUg-60" value="&lt;span style=&quot;font-size: 9px&quot;&gt;Temparatur&lt;/span&gt;" style="text;html=1;strokeColor=#b85450;fillColor=#f8cecc;align=left;verticalAlign=middle;whiteSpace=wrap;rounded=0;shadow=1;" parent="1" vertex="1">
          <mxGeometry x="384" y="140" width="56" height="20" as="geometry" />
        </mxCell>
        <mxCell id="CMZeyMyYZoMzUO1abHUg-61" value="&lt;font style=&quot;font-size: 9px&quot;&gt;Compressed Air&lt;/font&gt;" style="text;html=1;strokeColor=#b85450;fillColor=#f8cecc;align=left;verticalAlign=middle;whiteSpace=wrap;rounded=0;shadow=1;" parent="1" vertex="1">
          <mxGeometry x="384" y="162.5" width="56" height="25" as="geometry" />
        </mxCell>
        <mxCell id="CMZeyMyYZoMzUO1abHUg-62" value="....." style="text;html=1;strokeColor=none;fillColor=none;align=center;verticalAlign=middle;whiteSpace=wrap;rounded=0;shadow=1;" parent="1" vertex="1">
          <mxGeometry x="384" y="187.5" width="30" height="10" as="geometry" />
        </mxCell>
        <mxCell id="CMZeyMyYZoMzUO1abHUg-105" style="edgeStyle=orthogonalEdgeStyle;rounded=0;orthogonalLoop=1;jettySize=auto;html=1;exitX=0.85;exitY=0.95;exitDx=0;exitDy=0;exitPerimeter=0;entryX=0.644;entryY=1.004;entryDx=0;entryDy=0;entryPerimeter=0;" parent="1" source="CMZeyMyYZoMzUO1abHUg-78" target="CMZeyMyYZoMzUO1abHUg-1" edge="1">
          <mxGeometry relative="1" as="geometry" />
        </mxCell>
        <mxCell id="CMZeyMyYZoMzUO1abHUg-78" value="&lt;span style=&quot;font-size: 9px&quot;&gt;MES&lt;/span&gt;" style="shape=cylinder;whiteSpace=wrap;html=1;boundedLbl=1;backgroundOutline=1;shadow=1;fillColor=#d5e8d4;strokeColor=#82b366;" parent="1" vertex="1">
          <mxGeometry x="374" y="210" width="36" height="20" as="geometry" />
        </mxCell>
        <mxCell id="CMZeyMyYZoMzUO1abHUg-107" style="edgeStyle=orthogonalEdgeStyle;rounded=0;orthogonalLoop=1;jettySize=auto;html=1;exitX=0.85;exitY=0.95;exitDx=0;exitDy=0;exitPerimeter=0;entryX=0.721;entryY=1;entryDx=0;entryDy=0;entryPerimeter=0;" parent="1" source="CMZeyMyYZoMzUO1abHUg-75" target="CMZeyMyYZoMzUO1abHUg-1" edge="1">
          <mxGeometry relative="1" as="geometry" />
        </mxCell>
        <mxCell id="CMZeyMyYZoMzUO1abHUg-75" value="&lt;font style=&quot;font-size: 9px&quot;&gt;SCADA&lt;/font&gt;" style="shape=cylinder;whiteSpace=wrap;html=1;boundedLbl=1;backgroundOutline=1;shadow=1;fillColor=#d5e8d4;strokeColor=#82b366;" parent="1" vertex="1">
          <mxGeometry x="414" y="210" width="36" height="20" as="geometry" />
        </mxCell>
        <mxCell id="CMZeyMyYZoMzUO1abHUg-89" value="" style="endArrow=none;html=1;exitX=0.5;exitY=0;exitDx=0;exitDy=0;entryX=0.25;entryY=1;entryDx=0;entryDy=0;" parent="1" source="CMZeyMyYZoMzUO1abHUg-78" target="CMZeyMyYZoMzUO1abHUg-56" edge="1">
          <mxGeometry width="50" height="50" relative="1" as="geometry">
            <mxPoint x="350" y="250" as="sourcePoint" />
            <mxPoint x="400" y="200" as="targetPoint" />
          </mxGeometry>
        </mxCell>
        <mxCell id="CMZeyMyYZoMzUO1abHUg-92" value="" style="endArrow=none;html=1;" parent="1" edge="1">
          <mxGeometry width="50" height="50" relative="1" as="geometry">
            <mxPoint x="434" y="210" as="sourcePoint" />
            <mxPoint x="434" y="200" as="targetPoint" />
          </mxGeometry>
        </mxCell>
        <mxCell id="CMZeyMyYZoMzUO1abHUg-93" value="" style="rounded=1;whiteSpace=wrap;html=1;shadow=1;fillColor=#dae8fc;strokeColor=#6c8ebf;" parent="1" vertex="1">
          <mxGeometry x="75" y="250" width="515" height="60" as="geometry" />
        </mxCell>
        <mxCell id="CMZeyMyYZoMzUO1abHUg-94" value="DATA WAREHOUSE" style="text;html=1;strokeColor=#6c8ebf;fillColor=#dae8fc;align=center;verticalAlign=middle;whiteSpace=wrap;rounded=0;shadow=1;" parent="1" vertex="1">
          <mxGeometry x="275" y="240" width="120" height="20" as="geometry" />
        </mxCell>
        <mxCell id="CMZeyMyYZoMzUO1abHUg-96" value="" style="rounded=0;whiteSpace=wrap;html=1;shadow=1;" parent="1" vertex="1">
          <mxGeometry x="400" y="255" width="180" height="45" as="geometry" />
        </mxCell>
        <mxCell id="CMZeyMyYZoMzUO1abHUg-98" value="" style="rounded=0;whiteSpace=wrap;html=1;shadow=1;" parent="1" vertex="1">
          <mxGeometry x="95" y="260" width="145" height="40" as="geometry" />
        </mxCell>
        <mxCell id="CMZeyMyYZoMzUO1abHUg-99" value="&lt;font style=&quot;font-size: 11px&quot;&gt;STORAGE&lt;/font&gt;" style="text;html=1;strokeColor=#6c8ebf;fillColor=#dae8fc;align=left;verticalAlign=middle;whiteSpace=wrap;rounded=0;shadow=1;" parent="1" vertex="1">
          <mxGeometry x="95" y="260" width="65" height="20" as="geometry" />
        </mxCell>
        <mxCell id="CMZeyMyYZoMzUO1abHUg-95" value="&lt;font style=&quot;font-size: 10px&quot;&gt;OPC UA&lt;/font&gt;" style="rounded=0;whiteSpace=wrap;html=1;shadow=1;" parent="1" vertex="1">
          <mxGeometry x="400" y="240" width="50" height="20" as="geometry" />
        </mxCell>
        <mxCell id="CMZeyMyYZoMzUO1abHUg-100" value="&lt;font style=&quot;font-size: 9px&quot;&gt;PREPROCESSING&lt;/font&gt;" style="text;html=1;strokeColor=#6c8ebf;fillColor=#dae8fc;align=center;verticalAlign=middle;whiteSpace=wrap;rounded=0;shadow=1;" parent="1" vertex="1">
          <mxGeometry x="490" y="255" width="90" height="20" as="geometry" />
        </mxCell>
        <mxCell id="CMZeyMyYZoMzUO1abHUg-101" value="" style="edgeStyle=orthogonalEdgeStyle;rounded=0;orthogonalLoop=1;jettySize=auto;html=1;" parent="1" source="CMZeyMyYZoMzUO1abHUg-10" edge="1">
          <mxGeometry relative="1" as="geometry">
            <mxPoint x="520" y="255" as="targetPoint" />
          </mxGeometry>
        </mxCell>
        <mxCell id="CMZeyMyYZoMzUO1abHUg-116" value="" style="edgeStyle=orthogonalEdgeStyle;rounded=0;orthogonalLoop=1;jettySize=auto;html=1;exitX=0;exitY=0.25;exitDx=0;exitDy=0;shape=flexArrow;endWidth=5;endSize=4.275;fillColor=#f5f5f5;strokeColor=#666666;" parent="1" source="CMZeyMyYZoMzUO1abHUg-108" target="CMZeyMyYZoMzUO1abHUg-111" edge="1">
          <mxGeometry relative="1" as="geometry" />
        </mxCell>
        <mxCell id="CMZeyMyYZoMzUO1abHUg-108" value="&lt;font style=&quot;font-size: 8px&quot;&gt;Extraction&lt;/font&gt;" style="text;html=1;strokeColor=#d6b656;fillColor=#fff2cc;align=center;verticalAlign=middle;whiteSpace=wrap;rounded=0;shadow=1;" parent="1" vertex="1">
          <mxGeometry x="400" y="280" width="40" height="20" as="geometry" />
        </mxCell>
        <mxCell id="CMZeyMyYZoMzUO1abHUg-109" value="&lt;font style=&quot;font-size: 8px&quot;&gt;Transformation&lt;/font&gt;" style="text;html=1;strokeColor=#d6b656;fillColor=#fff2cc;align=center;verticalAlign=middle;whiteSpace=wrap;rounded=0;shadow=1;" parent="1" vertex="1">
          <mxGeometry x="447" y="280" width="60" height="20" as="geometry" />
        </mxCell>
        <mxCell id="CMZeyMyYZoMzUO1abHUg-110" value="&lt;font style=&quot;font-size: 8px&quot;&gt;Loading&lt;/font&gt;" style="text;html=1;strokeColor=#d6b656;fillColor=#fff2cc;align=center;verticalAlign=middle;whiteSpace=wrap;rounded=0;shadow=1;" parent="1" vertex="1">
          <mxGeometry x="515" y="280" width="40" height="20" as="geometry" />
        </mxCell>
        <mxCell id="CMZeyMyYZoMzUO1abHUg-115" value="" style="edgeStyle=orthogonalEdgeStyle;rounded=0;orthogonalLoop=1;jettySize=auto;html=1;entryX=1;entryY=0.25;entryDx=0;entryDy=0;shape=flexArrow;endWidth=6.666666666666667;endSize=4.275;fillColor=#f5f5f5;strokeColor=#666666;" parent="1" target="CMZeyMyYZoMzUO1abHUg-112" edge="1">
          <mxGeometry relative="1" as="geometry">
            <mxPoint x="300" y="285" as="sourcePoint" />
          </mxGeometry>
        </mxCell>
        <mxCell id="CMZeyMyYZoMzUO1abHUg-111" value="&lt;font style=&quot;font-size: 11px&quot;&gt;SQL&lt;/font&gt;" style="shape=cylinder;whiteSpace=wrap;html=1;boundedLbl=1;backgroundOutline=1;shadow=1;fillColor=#e1d5e7;strokeColor=#9673a6;" parent="1" vertex="1">
          <mxGeometry x="300" y="270" width="50" height="30" as="geometry" />
        </mxCell>
        <mxCell id="CMZeyMyYZoMzUO1abHUg-114" value="" style="edgeStyle=orthogonalEdgeStyle;rounded=0;orthogonalLoop=1;jettySize=auto;html=1;shape=link;" parent="1" source="CMZeyMyYZoMzUO1abHUg-112" target="CMZeyMyYZoMzUO1abHUg-113" edge="1">
          <mxGeometry relative="1" as="geometry" />
        </mxCell>
        <mxCell id="CMZeyMyYZoMzUO1abHUg-112" value="&lt;font style=&quot;font-size: 8px&quot;&gt;Raw DATA&lt;/font&gt;" style="text;html=1;strokeColor=#d6b656;fillColor=#fff2cc;align=center;verticalAlign=middle;whiteSpace=wrap;rounded=0;shadow=1;" parent="1" vertex="1">
          <mxGeometry x="195" y="280" width="45" height="20" as="geometry" />
        </mxCell>
        <mxCell id="CMZeyMyYZoMzUO1abHUg-113" value="&lt;font style=&quot;font-size: 8px&quot;&gt;Condensed DATA&lt;/font&gt;" style="text;html=1;strokeColor=#d6b656;fillColor=#fff2cc;align=center;verticalAlign=middle;whiteSpace=wrap;rounded=0;shadow=1;" parent="1" vertex="1">
          <mxGeometry x="95" y="280" width="70" height="20" as="geometry" />
        </mxCell>
        <mxCell id="CMZeyMyYZoMzUO1abHUg-22" value="&lt;font style=&quot;font-size: 9px&quot;&gt;Calendering&lt;br&gt;&lt;/font&gt;" style="rounded=0;whiteSpace=wrap;html=1;shadow=1;fillColor=#ffe6cc;strokeColor=#d79b00;" parent="1" vertex="1">
          <mxGeometry x="200" y="137.5" width="50" height="25" as="geometry" />
        </mxCell>
        <mxCell id="CMZeyMyYZoMzUO1abHUg-23" value="&lt;font style=&quot;font-size: 9px&quot;&gt;Stacking&lt;br&gt;&lt;/font&gt;" style="rounded=0;whiteSpace=wrap;html=1;shadow=1;fillColor=#ffe6cc;strokeColor=#d79b00;" parent="1" vertex="1">
          <mxGeometry x="265" y="137.5" width="40" height="25" as="geometry" />
        </mxCell>
      </root>
    </mxGraphModel>
  </diagram>
</mxfile>
